<svg height="511pt" viewBox="0 -39 511.99949 511" width="511pt" xmlns="http://www.w3.org/2000/svg"><path d="m152.136719 415.222656-4.273438-84.535156-29.007812-89.058594c-3.238281-9.933594 2.191406-20.609375 12.128906-23.84375 9.929687-3.238281 20.609375 2.191406 23.84375 12.125l29.789063 91.453125c.519531 1.585938.820312 3.234375.90625 4.902344l4.398437 87.050781c.527344 10.433594-7.503906 19.320313-17.9375 19.847656-10.472656.519532-19.324219-7.535156-19.847656-17.941406zm0 0" fill="#55696e"/><path d="m37.445312 432.792969c-10.230468-2.117188-16.808593-12.128907-14.691406-22.359375l17.09375-82.5625c.234375-1.140625.574219-2.257813 1.015625-3.335938l27.367188-66.835937c3.957031-9.667969 15.007812-14.300781 24.675781-10.339844 9.667969 3.957031 14.296875 15.007813 10.335938 24.675781l-26.703126 65.21875-16.734374 80.847656c-2.121094 10.242188-12.140626 16.808594-22.359376 14.691407zm0 0" fill="#748488"/><path d="m159.285156 66.703125c0 19.796875-16.046875 35.847656-35.84375 35.847656s-35.84375-16.050781-35.84375-35.847656 16.046875-35.84375 35.84375-35.84375 35.84375 16.046875 35.84375 35.84375zm0 0" fill="#ba6746"/><path d="m265.246094 219.777344-52.597656-37.007813-52.847657-60.972656c-4.417969-5.09375-10.746093-8.132813-17.484375-8.394531l-47.234375-1.847656-46.121093-29.710938-16.945313-68.972656c-2.140625-8.710938-10.9375-14.039063-19.648437-11.898438-8.707032 2.140625-14.035157 10.9375-11.894532 19.644532l18.488282 75.253906c.992187 4.03125 3.488281 7.53125 6.976562 9.777344l47.664062 30.707031-5.144531 111.113281c-.671875 14.492188 10.488281 26.800781 24.972657 27.554688l38.816406 2.019531c14.601562.757812 27.035156-10.507813 27.710937-25.113281l3.535157-76.304688 25.910156 29.914062c.863281.996094 1.847656 1.886719 2.929687 2.648438l54.585938 38.40625c7.527343 5.300781 17.945312 3.285156 22.96875-4.445312 4.800781-7.382813 2.5625-17.304688-4.640625-22.371094zm0 0" fill="#ba6746"/><path d="m159.800781 121.796875c-4.417969-5.09375-10.746093-8.132813-17.484375-8.394531l-6.601562-.261719c.019531 8.464844-7.875 15.566406-16.128906 15.566406-9.046876 0-15.746094-7.394531-16.136719-16.136719-.011719-.230468.007812-.457031.007812-.6875l-8.375-.328124-32.308593-20.8125-19.804688 25.875 30.632812 19.734374-5.144531 111.117188c-.671875 14.488281 10.488281 26.800781 24.972657 27.554688l38.816406 2.019531c14.601562.757812 27.035156-10.507813 27.710937-25.117188l3.535157-76.300781 9.695312 11.191406 23.0625-22.96875zm0 0" fill="#ffda52"/><path d="m352.417969 421.644531-44.304688-92.429687c-1.507812-3.144532-2.074219-6.652344-1.644531-10.109375l9.878906-78.9375c1.246094-9.957031 10.332032-17.011719 20.28125-15.769531 9.957032 1.246093 17.019532 10.328124 15.773438 20.28125l-9.21875 73.640624 42 87.617188c4.335937 9.046875.515625 19.898438-8.53125 24.234375-9.066406 4.347656-19.90625.503906-24.234375-8.527344zm0 0" fill="#f7a78d"/><path d="m403.226562 79.582031c0 19.011719-15.414062 34.425781-34.425781 34.425781s-34.425781-15.414062-34.425781-34.425781 15.414062-34.421875 34.425781-34.421875 34.425781 15.410156 34.425781 34.421875zm0 0" fill="#ffb69e"/><path d="m413.015625 57.929688c0-11.078126-8.980469-20.054688-20.054687-20.054688-6.648438 0-12.519532 3.242188-16.167969 8.21875-1.144531-.269531-2.308594-.492188-3.496094-.644531-13.417969-1.734375-25.753906 4.382812-32.796875 14.539062 5.863281 8.460938 15.4375 14.21875 26.511719 14.792969.023437 0 .046875.003906.066406.003906 3.574219.179688 6.816406 2.300782 8.097656 5.640625 3.601563 9.394531 11.21875 16.871094 20.851563 20.214844 4.371094-5.644531 7.046875-12.699219 7.191406-20.441406.03125-1.65625-.058594-3.292969-.261719-4.898438 6.007813-3.464843 10.058594-9.9375 10.058594-17.371093zm0 0" fill="#80391b"/><path d="m506.691406 41.445312c-6.472656-5.683593-16.328125-5.042968-22.011718 1.429688l-49.242188 56.097656-50.863281 26.523438-38.601563-2.242188c-8.757812-.511718-17.183594 3.425782-22.414062 10.46875l-38.425782 51.726563-40.382812 43.3125c-5.929688 6.359375-5.578125 16.320312.777344 22.246093 6.371094 5.941407 16.328125 5.566407 22.246094-.777343l40.992187-43.960938c.402344-.4375.785156-.894531 1.136719-1.371093l8.957031-12.09375-1.621094 35.335937c-1.0625 23.066406 16.964844 41.933594 40.050781 41.933594l-60.535156 136.84375c-4.0625 9.175781.085938 19.90625 9.261719 23.964843 9.152344 4.046876 19.894531-.058593 23.964844-9.261718l61.722656-139.277344c3.101563-6.996094 4.871094-14.507812 5.222656-22.15625l4.980469-108.546875 50.542969-26.359375c1.707031-.890625 3.238281-2.089844 4.507812-3.539062l51.167969-58.285157c5.683594-6.476562 5.039062-16.328125-1.433594-22.011719zm0 0" fill="#ffb69e"/><path d="m384.574219 125.496094-3.625-.210938c-.617188 7.214844-6.902344 13.140625-14.242188 13.140625-7.757812 0-14.304687-6.546875-14.304687-14.300781 0-.167969.023437-.332031.027344-.496094l-6.457032-.375c-8.757812-.511718-17.183594 3.425782-22.414062 10.46875l-29.972656 40.347656 25.273437 18.734376-17.5625 95.714843c-.65625 3.574219 1.945313 6.921875 5.570313 7.167969l94.5 5.742188c3.695312.25 6.753906-2.828126 6.480468-6.523438l-5.941406-143.265625 34.054688-17.761719-15.144532-27.28125zm0 0" fill="#ff6473"/></svg>